<?xml version="1.0" encoding="UTF-8" standalone="no"?>
<!-- Created with Inkscape (http://www.inkscape.org/) -->

<svg
   xmlns:dc="http://purl.org/dc/elements/1.1/"
   xmlns:cc="http://creativecommons.org/ns#"
   xmlns:rdf="http://www.w3.org/1999/02/22-rdf-syntax-ns#"
   xmlns:svg="http://www.w3.org/2000/svg"
   xmlns="http://www.w3.org/2000/svg"
   xmlns:sodipodi="http://sodipodi.sourceforge.net/DTD/sodipodi-0.dtd"
   xmlns:inkscape="http://www.inkscape.org/namespaces/inkscape"
   width="210mm"
   height="210mm"
   viewBox="0 0 210 210"
   version="1.1"
   id="svg8"
   inkscape:version="0.92.4 (5da689c313, 2019-01-14)"
   sodipodi:docname="icon.svg">
  <title
     id="title10">Calc</title>
  <defs
     id="defs2" />
  <sodipodi:namedview
     id="base"
     pagecolor="#ffffff"
     bordercolor="#666666"
     borderopacity="1.0"
     inkscape:pageopacity="0.0"
     inkscape:pageshadow="2"
     inkscape:zoom="0.35"
     inkscape:cx="400"
     inkscape:cy="445.71429"
     inkscape:document-units="mm"
     inkscape:current-layer="layer1"
     showgrid="false"
     inkscape:window-width="1366"
     inkscape:window-height="705"
     inkscape:window-x="-8"
     inkscape:window-y="-8"
     inkscape:window-maximized="1" />
  <metadata
     id="metadata5">
    <rdf:RDF>
      <cc:Work
         rdf:about="">
        <dc:format>image/svg+xml</dc:format>
        <dc:type
           rdf:resource="http://purl.org/dc/dcmitype/StillImage" />
        <dc:title>Calc</dc:title>
        <cc:license
           rdf:resource="http://creativecommons.org/licenses/by-sa/4.0/" />
        <dc:creator>
          <cc:Agent>
            <dc:title>Sharkbyte</dc:title>
          </cc:Agent>
        </dc:creator>
        <dc:date>2019</dc:date>
      </cc:Work>
      <cc:License
         rdf:about="http://creativecommons.org/licenses/by-sa/4.0/">
        <cc:permits
           rdf:resource="http://creativecommons.org/ns#Reproduction" />
        <cc:permits
           rdf:resource="http://creativecommons.org/ns#Distribution" />
        <cc:requires
           rdf:resource="http://creativecommons.org/ns#Notice" />
        <cc:requires
           rdf:resource="http://creativecommons.org/ns#Attribution" />
        <cc:permits
           rdf:resource="http://creativecommons.org/ns#DerivativeWorks" />
        <cc:requires
           rdf:resource="http://creativecommons.org/ns#ShareAlike" />
      </cc:License>
    </rdf:RDF>
  </metadata>
  <g
     inkscape:label="Ebene 1"
     inkscape:groupmode="layer"
     id="layer1"
     transform="translate(0,-87)">
    <path
       style="fill:#000000;stroke-width:0.26458332"
       d="M 36.285641,90.549654 V 294.65657 H 165.55372 V 90.549654 Z m 18.899105,15.118966 h 91.469864 v 43.84487 H 55.184746 Z"
       id="rect12"
       inkscape:connector-curvature="0" />
    <path
       style="fill:#ff0000;stroke-width:0.89732647"
       d="M 338.57227 301.12891 L 338.57227 389.70117 L 441.42773 389.70117 L 441.42773 301.12891 L 338.57227 301.12891 z M 460.57227 301.12891 L 460.57227 389.70117 L 563.42773 389.70117 L 563.42773 301.12891 L 460.57227 301.12891 z M 216 303.12891 L 216 391.70117 L 318.85742 391.70117 L 318.85742 303.12891 L 216 303.12891 z "
       transform="matrix(0.26458333,0,0,0.26458333,0,87)"
       id="rect17" />
    <path
       inkscape:connector-curvature="0"
       style="fill:#ff0000;stroke-width:0.23741762"
       d="m 90.034296,200.69184 v 23.43474 h 27.213814 v -23.43474 z m 32.279134,0 v 23.43474 h 27.21384 V 200.69184 Z M 57.603712,201.221 v 23.43475 H 84.818076 V 201.221 Z"
       id="rect17-3" />
    <path
       inkscape:connector-curvature="0"
       style="fill:#ff0000;stroke-width:0.23741762"
       d="m 89.353929,233.08455 v 23.43474 h 27.213851 v -23.43474 z m 32.279171,0 v 23.43474 h 27.21384 v -23.43474 z m -64.709756,0.52916 v 23.43475 h 27.214364 v -23.43475 z"
       id="rect17-3-5" />
    <rect
       style="fill:#ff0000;stroke-width:0.26458332"
       id="rect80"
       width="91.243324"
       height="15.761068"
       x="56.92334"
       y="264.98608" />
    <g
       id="g128">
      <g
         id="flowRoot82"
         style="font-style:normal;font-weight:normal;font-size:40px;line-height:1.25;font-family:sans-serif;letter-spacing:0px;word-spacing:0px;fill:#ff0000;fill-opacity:1;stroke:none"
         transform="matrix(1.1891227,0,0,1.0211821,1002.3913,-100.61375)"
         aria-label="/">
        <path
           inkscape:connector-curvature="0"
           id="path90"
           d="m -748.91797,205.5186 -14.0039,36.32813 h -3.37891 l 13.94531,-36.32813 z" />
      </g>
      <g
         id="flowRoot93"
         style="font-style:normal;font-weight:normal;font-size:40px;line-height:1.25;font-family:sans-serif;letter-spacing:0px;word-spacing:0px;fill:#ff0000;fill-opacity:1;stroke:none"
         transform="matrix(0.83376799,0,0,0.92534366,780.23655,-596.02512)"
         aria-label="o">
        <path
           style="fill:#ff0000"
           inkscape:connector-curvature="0"
           id="path101"
           d="m -817.79297,770.72368 q 0,5.33203 -2.73437,8.41797 -2.73438,3.08594 -7.32422,3.08594 -4.62891,0 -7.36328,-3.08594 -2.71485,-3.08594 -2.71485,-8.41797 0,-5.33203 2.71485,-8.41797 2.73437,-3.10547 7.36328,-3.10547 4.58984,0 7.32422,3.10547 2.73437,3.08594 2.73437,8.41797 z m -3.78906,0 q 0,-4.23828 -1.66016,-6.28906 -1.66015,-2.07031 -4.60937,-2.07031 -2.98828,0 -4.64844,2.07031 -1.64062,2.05078 -1.64062,6.28906 0,4.10156 1.66015,6.23047 1.66016,2.10938 4.62891,2.10938 2.92969,0 4.58984,-2.08985 1.67969,-2.10937 1.67969,-6.25 z" />
      </g>
      <g
         id="flowRoot93-4"
         style="font-style:normal;font-weight:normal;font-size:40px;line-height:1.25;font-family:sans-serif;letter-spacing:0px;word-spacing:0px;fill:#ff0000;fill-opacity:1;stroke:none"
         transform="matrix(0.83376799,0,0,0.92534366,802.80847,-576.22055)"
         aria-label="o">
        <path
           style="fill:#ff0000"
           inkscape:connector-curvature="0"
           id="path101-0"
           d="m -817.79297,770.72368 q 0,5.33203 -2.73437,8.41797 -2.73438,3.08594 -7.32422,3.08594 -4.62891,0 -7.36328,-3.08594 -2.71485,-3.08594 -2.71485,-8.41797 0,-5.33203 2.71485,-8.41797 2.73437,-3.10547 7.36328,-3.10547 4.58984,0 7.32422,3.10547 2.73437,3.08594 2.73437,8.41797 z m -3.78906,0 q 0,-4.23828 -1.66016,-6.28906 -1.66015,-2.07031 -4.60937,-2.07031 -2.98828,0 -4.64844,2.07031 -1.64062,2.05078 -1.64062,6.28906 0,4.10156 1.66015,6.23047 1.66016,2.10938 4.62891,2.10938 2.92969,0 4.58984,-2.08985 1.67969,-2.10937 1.67969,-6.25 z" />
      </g>
    </g>
  </g>
</svg>
